<?xml version="1.0" encoding="UTF-8" standalone="no"?>
<svg
   xmlns:dc="http://purl.org/dc/elements/1.1/"
   xmlns:cc="http://creativecommons.org/ns#"
   xmlns:rdf="http://www.w3.org/1999/02/22-rdf-syntax-ns#"
   xmlns:svg="http://www.w3.org/2000/svg"
   xmlns="http://www.w3.org/2000/svg"
   viewBox="0 0 755.90533 755.90533"
   height="755.90533"
   width="755.90533"
   xml:space="preserve"
   id="svg2"
   version="1.1"><metadata
     id="metadata8"><rdf:RDF><cc:Work
         rdf:about=""><dc:format>image/svg+xml</dc:format><dc:type
           rdf:resource="http://purl.org/dc/dcmitype/StillImage" /></cc:Work></rdf:RDF></metadata><defs
     id="defs6"><clipPath
       id="clipPath18"
       clipPathUnits="userSpaceOnUse"><path
         id="path16"
         d="M 0,566.929 H 566.929 V 0 H 0 Z" /></clipPath><clipPath
       id="clipPath114"
       clipPathUnits="userSpaceOnUse"><path
         id="path112"
         d="M 0,566.929 H 566.929 V 0 H 0 Z" /></clipPath></defs><g
     transform="matrix(1.3333333,0,0,-1.3333333,0,755.90533)"
     id="g10"><g
       id="g12"><g
         clip-path="url(#clipPath18)"
         id="g14"><g
           transform="translate(527.4487,280.4888)"
           id="g20"><path
             id="path22"
             style="fill:#82c388;fill-opacity:1;fill-rule:nonzero;stroke:none"
             d="m 0,0 c 10.975,7.604 18.167,20.281 18.167,34.644 0,16.809 -9.847,31.313 -24.082,38.072 4.53,6.719 7.175,14.811 7.175,23.522 0,21.8 -16.558,39.729 -37.781,41.904 1.4,4.193 2.168,8.673 2.168,13.337 0,23.265 -18.859,42.125 -42.125,42.125 -2.219,0 -4.4,-0.174 -6.527,-0.504 0.003,0.168 0.013,0.335 0.013,0.504 0,23.266 -18.86,42.126 -42.125,42.126 -7.008,0 -13.61,-1.72 -19.422,-4.746 -5.076,17.563 -21.264,30.411 -40.462,30.411 -11.669,0 -22.228,-4.747 -29.857,-12.412 -7.112,13.209 -21.063,22.188 -37.115,22.188 -20.405,0 -37.417,-14.506 -41.294,-33.768 -7.707,9.928 -19.746,16.323 -33.285,16.323 -21.254,0 -38.819,-15.74 -41.703,-36.196 -4.797,1.9 -10.019,2.954 -15.492,2.954 -23.268,0 -42.126,-18.86 -42.126,-42.126 0,-2.415 0.214,-4.778 0.603,-7.081 -0.818,0.048 -1.642,0.077 -2.473,0.077 -23.267,0 -42.126,-18.859 -42.126,-42.125 0,-6.56 1.5,-12.769 4.176,-18.304 -18.272,-4.608 -31.796,-21.146 -31.796,-40.846 0,-10.871 4.118,-20.777 10.879,-28.251 -11.737,-7.476 -19.527,-20.596 -19.527,-35.544 0,-15.326 8.186,-28.738 20.423,-36.109 -7.286,-7.571 -11.775,-17.857 -11.775,-29.197 0,-19.981 13.913,-36.699 32.578,-41.027 -2.55,-5.428 -3.982,-11.484 -3.982,-17.879 0,-23.265 18.86,-42.126 42.127,-42.126 0.923,0 1.837,0.041 2.745,0.099 -0.248,-1.845 -0.386,-3.723 -0.386,-5.635 0,-23.265 18.859,-42.126 42.127,-42.126 5.183,0 10.147,0.943 14.734,2.655 2.802,-20.547 20.408,-36.384 41.727,-36.384 9.911,0 19.016,3.43 26.211,9.159 6.86,-13.966 21.217,-23.581 37.827,-23.581 14.047,0 26.48,6.882 34.134,17.452 7.693,-8.294 18.678,-13.488 30.883,-13.488 18.971,0 35.008,12.54 40.284,29.781 6.36,-3.853 13.82,-6.072 21.799,-6.072 22.054,0 40.137,16.949 41.963,38.529 2.787,-0.58 5.674,-0.889 8.634,-0.889 23.266,0 42.125,18.861 42.125,42.127 0,4.266 -0.641,8.383 -1.819,12.266 21.791,1.614 38.97,19.792 38.97,41.995 0,8.111 -2.296,15.685 -6.269,22.112 15.684,6.13 26.801,21.382 26.801,39.239 C 15.724,-19.548 9.586,-7.72 0,0" /></g><g
           transform="translate(281.3716,184.7222)"
           id="g24"><path
             id="path26"
             style="fill:#ffffff;fill-opacity:1;fill-rule:nonzero;stroke:none"
             d="m 0,0 c -55.961,0 -101.327,45.365 -101.327,101.328 0,55.961 45.366,101.327 101.327,101.327 55.963,0 101.328,-45.366 101.328,-101.327 C 101.328,45.365 55.963,0 0,0 m 2.092,235.229 c -72.797,0 -131.81,-59.014 -131.81,-131.81 0,-72.797 59.013,-131.811 131.81,-131.811 72.796,0 131.81,59.014 131.81,131.811 0,72.796 -59.014,131.81 -131.81,131.81" /></g><g
           transform="translate(510.1167,288.1411)"
           id="g28"><path
             id="path30"
             style="fill:none;stroke:#ffffff;stroke-width:8;stroke-linecap:butt;stroke-linejoin:miter;stroke-miterlimit:10;stroke-dasharray:none;stroke-opacity:1"
             d="m 0,0 c 0,-125.178 -101.477,-226.652 -226.653,-226.652 -125.177,0 -226.653,101.474 -226.653,226.652 0,125.177 101.476,226.652 226.653,226.652 C -101.477,226.652 0,125.177 0,0 Z" /></g><g
           transform="translate(382.6997,286.0503)"
           id="g32"><path
             id="path34"
             style="fill:#82c388;fill-opacity:1;fill-rule:nonzero;stroke:none"
             d="m 0,0 c 0,-55.963 -45.365,-101.328 -101.328,-101.328 -55.961,0 -101.327,45.365 -101.327,101.328 0,55.961 45.366,101.327 101.327,101.327 C -45.365,101.327 0,55.961 0,0" /></g><g
           transform="translate(382.6997,286.0503)"
           id="g36"><path
             id="path38"
             style="fill:none;stroke:#ffffff;stroke-width:1;stroke-linecap:butt;stroke-linejoin:miter;stroke-miterlimit:10;stroke-dasharray:none;stroke-opacity:1"
             d="m 0,0 c 0,-55.963 -45.365,-101.328 -101.328,-101.328 -55.961,0 -101.327,45.365 -101.327,101.328 0,55.961 45.366,101.327 101.327,101.327 C -45.365,101.327 0,55.961 0,0 Z" /></g></g></g><text
       id="text42"
       style="font-variant:normal;font-weight:bold;font-stretch:condensed;font-size:86.29175568px;font-family:'DIN Condensed';-inkscape-font-specification:DINCondensed-Bold;writing-mode:lr-tb;fill:#ffffff;fill-opacity:1;fill-rule:nonzero;stroke:none"
       transform="matrix(0.73333775,0.67986451,0.67986451,-0.73333775,174.5962,384.5513)"><tspan
         id="tspan40"
         y="0"
         x="0">T</tspan></text>
<text
       id="text46"
       style="font-variant:normal;font-weight:bold;font-stretch:condensed;font-size:86.29174042px;font-family:'DIN Condensed';-inkscape-font-specification:DINCondensed-Bold;writing-mode:lr-tb;fill:#ffffff;fill-opacity:1;fill-rule:nonzero;stroke:none"
       transform="matrix(0.85936965,0.51135487,0.51135487,-0.85936965,195.8496,404.4316)"><tspan
         id="tspan44"
         y="0"
         x="0">E</tspan></text>
<text
       id="text50"
       style="font-variant:normal;font-weight:bold;font-stretch:condensed;font-size:86.29178619px;font-family:'DIN Condensed';-inkscape-font-specification:DINCondensed-Bold;writing-mode:lr-tb;fill:#ffffff;fill-opacity:1;fill-rule:nonzero;stroke:none"
       transform="matrix(0.94797554,0.31834317,0.31834317,-0.94797554,223.7446,420.7861)"><tspan
         id="tspan48"
         y="0"
         x="0">J</tspan></text>
<text
       id="text54"
       style="font-variant:normal;font-weight:bold;font-stretch:condensed;font-size:86.29177094px;font-family:'DIN Condensed';-inkscape-font-specification:DINCondensed-Bold;writing-mode:lr-tb;fill:#ffffff;fill-opacity:1;fill-rule:nonzero;stroke:none"
       transform="matrix(0.98783347,0.15551541,0.15551541,-0.98783347,252.0859,429.7207)"><tspan
         id="tspan52"
         y="0"
         x="0">I</tspan></text>
<text
       id="text58"
       style="font-variant:normal;font-weight:bold;font-stretch:condensed;font-size:86.29169464px;font-family:'DIN Condensed';-inkscape-font-specification:DINCondensed-Bold;writing-mode:lr-tb;fill:#ffffff;fill-opacity:1;fill-rule:nonzero;stroke:none"
       transform="matrix(0.99981577,-0.0191942,-0.0191942,-0.99981577,270.3359,433.1357)"><tspan
         id="tspan56"
         y="0"
         x="0">E</tspan></text>
<text
       id="text62"
       style="font-variant:normal;font-weight:bold;font-stretch:condensed;font-size:86.2917099px;font-family:'DIN Condensed';-inkscape-font-specification:DINCondensed-Bold;writing-mode:lr-tb;fill:#ffffff;fill-opacity:1;fill-rule:nonzero;stroke:none"
       transform="matrix(0.96618903,-0.25783474,-0.25783474,-0.96618903,302.3672,432.9136)"><tspan
         id="tspan60"
         y="0"
         x="0">N</tspan></text>
<text
       id="text66"
       style="font-variant:normal;font-weight:bold;font-stretch:condensed;font-size:86.29173279px;font-family:'DIN Condensed';-inkscape-font-specification:DINCondensed-Bold;writing-mode:lr-tb;fill:#ffffff;fill-opacity:1;fill-rule:nonzero;stroke:none"
       transform="matrix(0.86821526,-0.49618773,-0.49618773,-0.86821526,339.208,422.9941)"><tspan
         id="tspan64"
         y="0"
         x="0">D</tspan></text>
<text
       id="text70"
       style="font-variant:normal;font-weight:bold;font-stretch:condensed;font-size:86.29173279px;font-family:'DIN Condensed';-inkscape-font-specification:DINCondensed-Bold;writing-mode:lr-tb;fill:#ffffff;fill-opacity:1;fill-rule:nonzero;stroke:none"
       transform="matrix(0.71756235,-0.69649428,-0.69649428,-0.71756235,371.0591,404.7944)"><tspan
         id="tspan68"
         y="0"
         x="0">O</tspan></text>
<text
       id="text74"
       style="font-variant:normal;font-weight:bold;font-stretch:condensed;font-size:86.29174805px;font-family:'DIN Condensed';-inkscape-font-specification:DINCondensed-Bold;writing-mode:lr-tb;fill:#ffffff;fill-opacity:1;fill-rule:nonzero;stroke:none"
       transform="matrix(0.49930381,-0.86642697,-0.86642697,-0.49930381,92.7651,199.6846)"><tspan
         id="tspan72"
         y="0"
         x="0">O</tspan></text>
<text
       id="text78"
       style="font-variant:normal;font-weight:bold;font-stretch:condensed;font-size:86.29174805px;font-family:'DIN Condensed';-inkscape-font-specification:DINCondensed-Bold;writing-mode:lr-tb;fill:#ffffff;fill-opacity:1;fill-rule:nonzero;stroke:none"
       transform="matrix(0.6647646,-0.74705289,-0.74705289,-0.6647646,117.4878,159.7227)"><tspan
         id="tspan76"
         y="0"
         x="0">T</tspan></text>
<text
       id="text82"
       style="font-variant:normal;font-weight:bold;font-stretch:condensed;font-size:86.29176331px;font-family:'DIN Condensed';-inkscape-font-specification:DINCondensed-Bold;writing-mode:lr-tb;fill:#ffffff;fill-opacity:1;fill-rule:nonzero;stroke:none"
       transform="matrix(0.8057304,-0.59228246,-0.59228246,-0.8057304,144.7817,130.23)"><tspan
         id="tspan80"
         y="0"
         x="0">R</tspan></text>
<text
       id="text86"
       style="font-variant:normal;font-weight:bold;font-stretch:condensed;font-size:86.29178619px;font-family:'DIN Condensed';-inkscape-font-specification:DINCondensed-Bold;writing-mode:lr-tb;fill:#ffffff;fill-opacity:1;fill-rule:nonzero;stroke:none"
       transform="matrix(0.92156281,-0.38822931,-0.38822931,-0.92156281,185.3101,102.2544)"><tspan
         id="tspan84"
         y="0"
         x="0">O</tspan></text>
<text
       id="text90"
       style="font-variant:normal;font-weight:bold;font-stretch:condensed;font-size:86.29174042px;font-family:'DIN Condensed';-inkscape-font-specification:DINCondensed-Bold;writing-mode:lr-tb;fill:#ffffff;fill-opacity:1;fill-rule:nonzero;stroke:none"
       transform="matrix(0.99986855,-0.0162136,-0.0162136,-0.99986855,256.0552,79.1982)"><tspan
         id="tspan88"
         y="0"
         x="0">M</tspan></text>
<text
       id="text94"
       style="font-variant:normal;font-weight:bold;font-stretch:condensed;font-size:86.29180145px;font-family:'DIN Condensed';-inkscape-font-specification:DINCondensed-Bold;writing-mode:lr-tb;fill:#ffffff;fill-opacity:1;fill-rule:nonzero;stroke:none"
       transform="matrix(0.96896458,0.24719961,0.24719961,-0.96896458,317.564,80.7246)"><tspan
         id="tspan92"
         y="0"
         x="0">U</tspan></text>
<text
       id="text98"
       style="font-variant:normal;font-weight:bold;font-stretch:condensed;font-size:86.29178619px;font-family:'DIN Condensed';-inkscape-font-specification:DINCondensed-Bold;writing-mode:lr-tb;fill:#ffffff;fill-opacity:1;fill-rule:nonzero;stroke:none"
       transform="matrix(0.88185911,0.471513,0.471513,-0.88185911,365.1431,94.3618)"><tspan
         id="tspan96"
         y="0"
         x="0">N</tspan></text>
<text
       id="text102"
       style="font-variant:normal;font-weight:bold;font-stretch:condensed;font-size:86.29174042px;font-family:'DIN Condensed';-inkscape-font-specification:DINCondensed-Bold;writing-mode:lr-tb;fill:#ffffff;fill-opacity:1;fill-rule:nonzero;stroke:none"
       transform="matrix(0.74544332,0.66656902,0.66656902,-0.74544332,409.2617,119.7754)"><tspan
         id="tspan100"
         y="0"
         x="0">D</tspan></text>
<text
       id="text106"
       style="font-variant:normal;font-weight:bold;font-stretch:condensed;font-size:86.29173279px;font-family:'DIN Condensed';-inkscape-font-specification:DINCondensed-Bold;writing-mode:lr-tb;fill:#ffffff;fill-opacity:1;fill-rule:nonzero;stroke:none"
       transform="matrix(0.57110336,0.82087816,0.82087816,-0.57110336,444.9443,153.6284)"><tspan
         id="tspan104"
         y="0"
         x="0">O</tspan></text>
<g
       id="g108"><g
         clip-path="url(#clipPath114)"
         id="g110"><g
           transform="translate(269.9199,373.229)"
           id="g116"><path
             id="path118"
             style="fill:#ffffff;fill-opacity:1;fill-rule:nonzero;stroke:none"
             d="m 0,0 c -0.008,-0.008 -0.01,-0.012 -0.143,0.061 -0.785,0.41 -2.737,1.556 -4.821,3.256 -0.038,0.032 -0.174,0.148 -0.189,0.171 l 2.443,3.564 c 0,0 0.918,0.218 1.976,0.089 C 0.825,7.083 1.779,6.039 2.104,5.2 2.246,5.168 2.389,3.528 2.389,3.528 Z" /></g><g
           transform="translate(273.0854,368.2866)"
           id="g120"><path
             id="path122"
             style="fill:#ffffff;fill-opacity:1;fill-rule:nonzero;stroke:none"
             d="m 0,0 c 1.355,-0.279 2.139,-0.365 2.601,0.189 0.5,0.6 2.85,3.723 2.85,3.723 0,0 2.401,3.084 2.849,3.723 0.414,0.591 0.127,1.325 -0.496,2.56 -1.355,0.28 -2.139,0.365 -2.601,-0.189 -0.5,-0.6 -2.85,-3.723 -2.85,-3.723 0,0 -2.401,-3.083 -2.85,-3.723 C -0.91,1.969 -0.623,1.235 0,0" /></g><g
           transform="translate(273.9243,197.1357)"
           id="g124"><path
             id="path126"
             style="fill:#ffffff;fill-opacity:1;fill-rule:nonzero;stroke:none"
             d="m 0,0 c -0.038,-0.155 -0.05,-0.212 -0.244,-0.381 -0.592,-0.609 -1.578,-1.271 -2.631,-1.26 -1.045,0.054 -2.105,0.707 -3.053,2.509 -0.034,0.066 -0.146,0.367 -0.141,0.505 0.035,0.181 0.962,4.024 1.548,9.812 1.251,11.893 0.544,26.733 -2.851,41.622 -3.315,14.914 -9.295,29.765 -16.214,42.365 -3.446,6.313 -7.079,12.095 -10.589,17.187 -1.754,2.547 -3.475,4.924 -5.121,7.117 l -2.41,3.149 -1.633,2.071 c -1.99,2.493 -3.255,3.983 -3.253,3.985 l -9.438,12.951 c -3.392,4.5 -4.153,6.147 -3.3,6.163 0.84,0.005 3.258,-1.655 5.945,-3.953 -0.201,0.315 2.911,-2.527 5.985,-5.56 3.076,-3.028 6.093,-6.26 6.091,-6.261 l 0.882,-1.069 2.6,-3.224 c 5.81,-7.346 13.471,-17.954 20.366,-30.84 C -10.531,84.043 -4.517,68.866 -1.176,53.559 2.246,38.272 2.969,22.999 1.666,10.554 1.052,4.443 0.047,0.227 0,0" /></g><g
           transform="translate(284.3911,193.9893)"
           id="g128"><path
             id="path130"
             style="fill:#ffffff;fill-opacity:1;fill-rule:nonzero;stroke:none"
             d="m 0,0 c -0.031,-0.154 -0.042,-0.21 -0.229,-0.385 -0.567,-0.62 -1.52,-1.312 -2.569,-1.349 -1.046,-0.003 -2.146,0.595 -3.158,2.382 -0.036,0.066 -0.159,0.366 -0.159,0.506 0.032,0.189 0.814,4.104 1.365,9.932 1.289,13.358 0.776,29.961 -2.649,46.686 -1.689,8.362 -4.074,16.744 -7.048,24.768 -2.964,8.029 -6.525,15.693 -10.378,22.714 -3.851,7.025 -8.003,13.4 -12.048,18.969 -2.022,2.786 -4.024,5.367 -5.943,7.739 -0.96,1.186 -1.901,2.319 -2.817,3.397 l -1.876,2.177 c -2.095,2.396 -3.429,3.818 -3.426,3.821 l -3.452,4.284 -6.655,8.116 c -3.655,4.281 -4.53,5.869 -3.677,5.942 0.836,0.059 3.361,-1.44 6.184,-3.577 -0.22,0.303 3.063,-2.35 6.302,-5.218 3.242,-2.863 6.418,-5.954 6.414,-5.958 l 0.934,-1.026 2.788,-3.156 c 6.851,-7.907 15.765,-19.537 23.473,-33.924 3.862,-7.176 7.419,-15.014 10.393,-23.216 2.983,-8.199 5.365,-16.762 7.059,-25.303 C 2.25,41.229 2.769,24.293 1.441,10.5 0.871,4.425 0.04,0.225 0,0" /></g><g
           transform="translate(298.2612,195.8862)"
           id="g132"><path
             id="path134"
             style="fill:#ffffff;fill-opacity:1;fill-rule:nonzero;stroke:none"
             d="m 0,0 c -0.027,-0.154 -0.037,-0.21 -0.22,-0.388 -0.552,-0.629 -1.487,-1.34 -2.533,-1.404 -1.045,-0.032 -2.164,0.536 -3.216,2.306 -0.038,0.066 -0.167,0.364 -0.17,0.505 0.028,0.191 0.723,4.138 1.205,9.985 1.18,14.053 0.587,31.481 -3.078,49.015 -1.813,8.764 -4.37,17.539 -7.595,25.908 -3.216,8.373 -7.1,16.333 -11.351,23.562 -4.247,7.234 -8.85,13.738 -13.366,19.35 -2.258,2.807 -4.491,5.396 -6.641,7.757 -1.076,1.181 -2.129,2.305 -3.155,3.372 l -2.085,2.133 c -2.241,2.251 -3.668,3.575 -3.664,3.578 l -3.734,4.027 -7.23,7.59 c -3.974,3.979 -4.984,5.483 -4.139,5.626 0.831,0.131 3.47,-1.162 6.455,-3.074 -0.246,0.283 3.244,-2.103 6.684,-4.739 3.45,-2.62 6.829,-5.501 6.827,-5.503 l 1.002,-0.965 1.169,-1.146 1.843,-1.849 c 7.716,-7.821 17.717,-19.575 26.225,-34.461 4.265,-7.42 8.157,-15.581 11.381,-24.148 3.231,-8.565 5.791,-17.53 7.604,-26.474 C 1.881,42.662 2.472,24.937 1.264,10.492 0.768,4.424 0.034,0.224 0,0" /></g><g
           transform="translate(309.356,197.5215)"
           id="g136"><path
             id="path138"
             style="fill:#ffffff;fill-opacity:1;fill-rule:nonzero;stroke:none"
             d="m 0,0 c -0.02,-0.154 -0.026,-0.21 -0.199,-0.395 -0.518,-0.65 -1.408,-1.405 -2.447,-1.528 -1.04,-0.102 -2.199,0.393 -3.342,2.123 -0.041,0.064 -0.186,0.359 -0.196,0.5 0.02,0.198 0.505,4.207 0.816,10.095 0.787,14.76 0.178,32.946 -3.184,51.368 -1.671,9.204 -4.028,18.453 -7.097,27.291 -3.061,8.84 -6.842,17.261 -11.135,24.851 -4.282,7.598 -9.073,14.354 -13.89,20.06 -2.407,2.856 -4.817,5.453 -7.157,7.79 -1.169,1.17 -2.321,2.274 -3.447,3.314 l -1.667,1.512 -0.608,0.54 c -2.371,2.082 -3.891,3.274 -3.886,3.28 -0.005,-0.004 -1.681,1.588 -4.033,3.671 -2.347,2.087 -5.394,4.641 -7.938,6.765 -4.399,3.471 -5.624,4.803 -4.799,5.063 0.805,0.239 3.602,-0.696 6.803,-2.258 -0.281,0.251 3.487,-1.714 7.186,-4.024 3.712,-2.286 7.327,-4.922 7.324,-4.925 l 1.079,-0.893 1.256,-1.067 1.997,-1.751 c 4.305,-3.851 9.186,-8.759 14.047,-14.726 4.862,-5.961 9.688,-12.983 13.987,-20.828 4.311,-7.839 8.095,-16.486 11.152,-25.52 3.065,-9.032 5.41,-18.442 7.073,-27.783 C 1.036,43.828 1.639,25.48 0.842,10.466 0.525,4.418 0.022,0.222 0,0" /></g><g
           transform="translate(320.3164,202.5337)"
           id="g140"><path
             id="path142"
             style="fill:#ffffff;fill-opacity:1;fill-rule:nonzero;stroke:none"
             d="m 0,0 c -0.023,-0.154 -0.031,-0.21 -0.208,-0.391 -0.535,-0.639 -1.445,-1.372 -2.488,-1.468 -1.042,-0.072 -2.185,0.456 -3.284,2.209 -0.041,0.065 -0.178,0.362 -0.184,0.504 0.024,0.195 0.609,4.183 1.029,10.055 1.071,14.856 0.606,33.221 -2.927,51.765 -1.753,9.265 -4.269,18.556 -7.552,27.399 -3.274,8.846 -7.325,17.231 -11.886,24.755 -4.551,7.533 -9.609,14.193 -14.643,19.813 -2.518,2.81 -5.025,5.366 -7.452,7.667 -1.213,1.15 -2.405,2.237 -3.569,3.261 l -2.344,2.019 c -2.42,2.032 -3.965,3.201 -3.96,3.206 -0.004,-0.003 -1.716,1.558 -4.104,3.608 -2.382,2.059 -5.466,4.577 -8.025,6.689 -4.427,3.447 -5.644,4.786 -4.822,5.046 0.805,0.24 3.599,-0.691 6.806,-2.228 -0.28,0.251 3.492,-1.689 7.215,-3.944 3.735,-2.229 7.392,-4.791 7.39,-4.793 l 1.094,-0.87 1.276,-1.038 2.035,-1.707 c 4.424,-3.782 9.478,-8.59 14.559,-14.458 5.083,-5.86 10.179,-12.786 14.757,-20.574 4.59,-7.78 8.65,-16.414 11.929,-25.477 3.286,-9.062 5.795,-18.543 7.542,-27.972 C 1.7,44.198 2.156,25.622 1.068,10.464 0.639,4.415 0.028,0.222 0,0" /></g><g
           transform="translate(330.5557,207.2837)"
           id="g144"><path
             id="path146"
             style="fill:#ffffff;fill-opacity:1;fill-rule:nonzero;stroke:none"
             d="m 0,0 c -0.022,-0.154 -0.03,-0.209 -0.207,-0.391 -0.531,-0.641 -1.437,-1.378 -2.479,-1.48 -1.041,-0.079 -2.189,0.441 -3.296,2.191 -0.04,0.065 -0.179,0.362 -0.186,0.504 0.023,0.196 0.588,4.191 0.998,10.068 1.045,14.927 0.625,33.371 -2.846,52.005 -1.726,9.31 -4.211,18.648 -7.494,27.527 -3.272,8.882 -7.348,17.29 -11.981,24.799 -4.62,7.518 -9.79,14.121 -14.959,19.637 -2.583,2.762 -5.164,5.255 -7.662,7.487 -1.249,1.116 -2.476,2.168 -3.675,3.155 l -1.774,1.434 -0.641,0.506 c -2.486,1.942 -4.073,3.045 -4.069,3.051 -10e-4,-0.001 -1.77,1.487 -4.237,3.434 -2.461,1.954 -5.65,4.33 -8.306,6.314 -4.585,3.226 -5.875,4.495 -5.067,4.798 0.792,0.281 3.632,-0.505 6.913,-1.889 -0.293,0.237 3.574,-1.518 7.396,-3.615 3.835,-2.068 7.593,-4.495 7.592,-4.496 l 1.127,-0.831 1.317,-0.992 2.1,-1.639 c 4.579,-3.648 9.803,-8.339 15.037,-14.134 5.234,-5.787 10.459,-12.686 15.113,-20.485 4.666,-7.79 8.76,-16.463 12.034,-25.574 3.286,-9.108 5.765,-18.64 7.483,-28.112 C 1.684,44.306 2.094,25.669 1.034,10.459 0.616,4.412 0.027,0.222 0,0" /></g><g
           transform="translate(207.6729,342.8647)"
           id="g148"><path
             id="path150"
             style="fill:#ffffff;fill-opacity:1;fill-rule:nonzero;stroke:none"
             d="M 0,0 C 0.029,0.039 0.039,0.054 0.198,0.022 1.173,-0.105 3.4,-0.843 5.042,-3.202 5.072,-3.245 5.169,-3.419 5.165,-3.472 L -5.334,-19.045 c 0,0 -2.213,-2.15 -4.181,-3.377 -3.103,-2.243 -3.443,-0.284 -2.815,1.976 -0.242,-0.117 1.997,5.074 1.997,5.074 z" /></g><g
           transform="translate(214.1113,333.9229)"
           id="g152"><path
             id="path154"
             style="fill:#ffffff;fill-opacity:1;fill-rule:nonzero;stroke:none"
             d="M 0,0 C 0.097,0.121 0.132,0.165 0.376,0.23 1.158,0.509 2.31,0.681 3.259,0.24 4.199,-0.215 4.927,-1.247 4.984,-3.324 4.986,-3.4 4.953,-3.727 4.886,-3.853 c -0.119,-0.16 -2.653,-3.313 -6.018,-8.145 -2.069,-2.919 -5.26,-7.862 -6.708,-10.314 -1.797,-2.99 -2.826,-4.887 -2.83,-4.884 0.002,-0.002 -1.28,-1.942 -2.953,-4.611 -1.68,-2.664 -3.713,-6.079 -5.388,-8.931 -2.693,-4.9 -3.762,-6.353 -4.171,-5.587 -0.38,0.75 0.053,3.681 1.076,7.102 -0.206,-0.318 1.126,3.73 2.807,7.746 1.652,4.027 3.619,8.017 3.617,8.017 0.004,-0.002 0.922,1.666 2.529,4.343 1.422,2.419 4.757,7.616 6.916,10.671 C -2.773,-3.468 -0.134,-0.177 0,0" /></g><g
           transform="translate(219.5659,325.6406)"
           id="g156"><path
             id="path158"
             style="fill:#ffffff;fill-opacity:1;fill-rule:nonzero;stroke:none"
             d="m 0,0 c 0.088,0.127 0.12,0.174 0.359,0.256 0.76,0.333 1.896,0.587 2.874,0.215 0.97,-0.388 1.77,-1.364 1.975,-3.432 0.007,-0.076 -0.003,-0.405 -0.06,-0.535 -0.108,-0.168 -2.411,-3.495 -5.436,-8.553 -2.365,-3.939 -5.325,-9.257 -7.881,-14.505 -2.575,-5.24 -4.73,-10.404 -6.011,-13.814 -1.228,-3.251 -1.878,-5.298 -1.883,-5.297 0.004,-0.002 -0.896,-2.134 -2.011,-5.063 -1.123,-2.927 -2.41,-6.667 -3.419,-9.804 -1.549,-5.349 -2.207,-7.027 -2.795,-6.376 -0.547,0.638 -0.814,3.602 -0.556,7.182 -0.132,-0.357 0.286,3.907 1.141,8.199 0.818,4.298 2.022,8.603 2.022,8.602 0.004,-0.002 0.595,1.818 1.702,4.75 1.269,3.385 3.481,8.731 6.15,14.179 2.648,5.459 5.734,11.022 8.204,15.137 C -2.518,-3.656 -0.121,-0.186 0,0" /></g><g
           transform="translate(226.4844,316.4751)"
           id="g160"><path
             id="path162"
             style="fill:#ffffff;fill-opacity:1;fill-rule:nonzero;stroke:none"
             d="M 0,0 C 0.086,0.129 0.118,0.176 0.355,0.263 1.11,0.61 2.244,0.883 3.228,0.526 4.203,0.152 5.016,-0.812 5.257,-2.873 5.265,-2.949 5.262,-3.277 5.207,-3.408 5.102,-3.576 2.86,-6.937 -0.059,-12.054 c -2.629,-4.584 -5.871,-10.793 -8.617,-16.928 -2.768,-6.125 -5.025,-12.167 -6.345,-16.154 -1.104,-3.302 -1.686,-5.377 -1.692,-5.375 0.005,-0.002 -0.822,-2.172 -1.857,-5.143 -1.044,-2.969 -2.258,-6.752 -3.255,-9.908 -1.53,-5.38 -2.261,-7.031 -2.826,-6.373 -0.536,0.648 -0.759,3.598 -0.529,7.159 -0.129,-0.356 0.263,3.884 1.002,8.178 0.713,4.298 1.753,8.631 1.755,8.63 0.005,-0.002 0.532,1.832 1.521,4.798 1.304,3.942 3.611,10.177 6.476,16.538 2.839,6.373 6.219,12.866 8.966,17.659 C -2.459,-3.706 -0.119,-0.188 0,0" /></g><g
           transform="translate(231.146,307.7275)"
           id="g164"><path
             id="path166"
             style="fill:#ffffff;fill-opacity:1;fill-rule:nonzero;stroke:none"
             d="M 0,0 C 0.073,0.136 0.1,0.186 0.327,0.294 1.042,0.711 2.141,1.093 3.156,0.837 4.164,0.565 5.074,-0.311 5.513,-2.345 5.528,-2.42 5.556,-2.748 5.514,-2.885 5.423,-3.063 3.521,-6.644 1.043,-12.009 c -2.409,-5.188 -5.369,-12.166 -7.885,-18.999 -2.537,-6.826 -4.625,-13.497 -5.863,-17.883 -0.958,-3.369 -1.481,-5.474 -1.484,-5.473 l -1.722,-5.227 -3.185,-9.992 c -1.579,-5.394 -2.398,-7.007 -2.934,-6.336 -0.518,0.663 -0.659,3.602 -0.415,7.141 -0.131,-0.351 0.288,3.859 0.947,8.137 0.639,4.28 1.513,8.62 1.513,8.619 0.004,-0.001 0.468,1.836 1.317,4.827 1.208,4.287 3.321,11.098 5.923,18.126 2.58,7.035 5.643,14.279 8.142,19.667 C -2.072,-3.915 -0.101,-0.198 0,0" /></g><g
           transform="translate(236.1372,291.4272)"
           id="g168"><path
             id="path170"
             style="fill:#ffffff;fill-opacity:1;fill-rule:nonzero;stroke:none"
             d="M 0,0 C -0.025,0.027 -0.035,0.037 0.037,0.177 0.42,1.038 1.67,2.981 4.124,4.319 4.169,4.343 4.343,4.42 4.386,4.414 l 10.18,-10.152 c 0,0 1.19,-2.081 1.671,-3.896 1.017,-2.877 -0.732,-3.078 -2.462,-2.401 0.031,-0.222 -3.718,2.041 -3.718,2.041 z" /></g><g
           transform="translate(229.252,280.0229)"
           id="g172"><path
             id="path174"
             style="fill:#ffffff;fill-opacity:1;fill-rule:nonzero;stroke:none"
             d="m 0,0 c -0.05,0.038 -0.069,0.051 -0.049,0.221 0.043,1.047 0.675,3.365 3.325,4.775 0.048,0.025 0.246,0.103 0.31,0.09 L 23.503,-8.99 c 0,0 2.836,-2.78 4.536,-5.138 3.048,-3.77 0.732,-3.82 -2.056,-2.758 0.168,-0.285 -6.327,3.026 -6.327,3.026 z" /></g><g
           transform="translate(226.2246,268.6172)"
           id="g176"><path
             id="path178"
             style="fill:#ffffff;fill-opacity:1;fill-rule:nonzero;stroke:none"
             d="M 0,0 C -0.06,0.041 -0.083,0.055 -0.081,0.233 -0.158,1.331 0.268,3.744 3.039,5.145 3.089,5.171 3.3,5.246 3.372,5.23 L 27.14,-10.124 c 0,0 3.477,-3.001 5.644,-5.525 3.83,-4.045 1.267,-4.029 -1.952,-2.833 0.22,-0.304 -7.379,3.361 -7.379,3.361 z" /></g><g
           transform="translate(223.6738,257.0874)"
           id="g180"><path
             id="path182"
             style="fill:#ffffff;fill-opacity:1;fill-rule:nonzero;stroke:none"
             d="M 0,0 C -0.129,0.079 -0.176,0.107 -0.269,0.337 -0.999,1.795 -1.543,4.748 2.633,5.381 2.709,5.393 3.044,5.4 3.181,5.349 l 8.863,-5.276 5.099,-3.053 4.941,-2.941 c 0,0 7.808,-5.385 13.026,-9.591 9.001,-6.892 4.43,-5.774 -1.946,-2.843 0.556,-0.489 -14.947,7.523 -14.947,7.523 l -4.243,2.523 -5.108,3.037 z" /></g><g
           transform="translate(219.8042,245.0845)"
           id="g184"><path
             id="path186"
             style="fill:#ffffff;fill-opacity:1;fill-rule:nonzero;stroke:none"
             d="M 0,0 C -0.132,0.074 -0.18,0.101 -0.281,0.328 -1.062,1.759 -1.71,4.69 2.44,5.471 2.517,5.485 2.851,5.504 2.989,5.458 l 9.045,-4.958 9.84,-5.41 5.042,-2.764 c 0,0 7.993,-5.104 13.357,-9.123 9.239,-6.569 4.632,-5.614 -1.844,-2.91 0.573,-0.469 -15.204,6.989 -15.204,6.989 l -4.329,2.37 -9.849,5.393 z" /></g><g
           transform="translate(217.4468,232.4463)"
           id="g188"><path
             id="path190"
             style="fill:#ffffff;fill-opacity:1;fill-rule:nonzero;stroke:none"
             d="M 0,0 C -0.123,0.111 -0.169,0.151 -0.231,0.409 -0.504,1.241 -0.622,2.467 -0.074,3.387 0.555,4.225 1.638,4.764 3.606,4.784 3.679,4.783 3.987,4.746 4.102,4.68 4.214,4.567 7.1,2.024 12.061,-1.036 c 3.022,-1.93 8.272,-4.774 10.876,-6.057 3.121,-1.564 5.098,-2.462 5.095,-2.466 l 14.046,-7.728 c 4.976,-2.657 6.35,-3.843 5.582,-4.211 -0.763,-0.357 -3.648,0.147 -7.049,1.094 0.316,-0.197 -3.701,1.057 -7.768,2.5 -4.071,1.428 -8.18,3.075 -8.178,3.079 0.001,0.003 -1.72,0.795 -4.51,2.192 -2.561,1.254 -8.118,4.241 -11.38,6.318 C 3.544,-3.104 0.18,-0.181 0,0" /></g><g
           transform="translate(215.6904,220.0386)"
           id="g192"><path
             id="path194"
             style="fill:#ffffff;fill-opacity:1;fill-rule:nonzero;stroke:none"
             d="m 0,0 c -0.113,0.111 -0.155,0.15 -0.2,0.403 -0.215,0.816 -0.277,1.996 0.267,2.894 0.57,0.878 1.674,1.466 3.717,1.348 0.075,-0.005 0.392,-0.064 0.509,-0.14 0.143,-0.122 2.971,-2.917 7.61,-6.397 1.493,-1.125 3.512,-2.555 5.512,-3.84 1.995,-1.291 3.968,-2.435 5.272,-3.151 3.007,-1.651 4.946,-2.51 4.942,-2.517 10e-4,0.001 1.984,-1.133 4.763,-2.51 2.774,-1.387 6.378,-2.941 9.44,-4.123 2.609,-0.94 4.345,-1.536 5.33,-2.015 0.987,-0.47 1.225,-0.822 0.892,-1.081 -0.658,-0.516 -3.64,-0.672 -7.22,-0.201 0.353,-0.154 -3.912,0.501 -8.156,1.742 -4.256,1.19 -8.439,2.934 -8.436,2.934 0.004,0.008 -1.761,0.811 -4.543,2.339 -1.329,0.727 -3.432,1.938 -5.576,3.318 -2.148,1.373 -4.334,2.916 -5.948,4.128 C 3.244,-3.176 0.172,-0.15 0,0" /></g><g
           transform="translate(283.6514,361.9224)"
           id="g196"><path
             id="path198"
             style="fill:#ffffff;fill-opacity:1;fill-rule:nonzero;stroke:none"
             d="m 0,0 c -0.022,-0.026 -0.03,-0.036 -0.177,0.021 -0.886,0.293 -2.946,1.324 -4.608,3.552 -0.03,0.041 -0.131,0.201 -0.131,0.242 l 8.215,10.543 c 0,0 1.821,1.306 3.493,1.914 2.613,1.207 3.073,-0.442 2.686,-2.147 0.208,0.047 -1.397,-3.713 -1.397,-3.713 z" /></g><g
           transform="translate(293.1826,352.9722)"
           id="g200"><path
             id="path202"
             style="fill:#ffffff;fill-opacity:1;fill-rule:nonzero;stroke:none"
             d="m 0,0 c -0.018,-0.043 -0.024,-0.059 -0.187,-0.065 -0.486,-0.048 -1.312,-0.031 -2.292,0.222 -0.984,0.236 -2.126,0.732 -3.184,1.743 -0.039,0.037 -0.17,0.193 -0.177,0.25 0.048,0.162 1.838,4.99 4.396,9.465 1.26,2.247 2.703,4.411 3.908,5.973 1.202,1.565 2.129,2.539 2.126,2.54 0.001,-0.003 0.7,0.546 1.744,1.16 1.036,0.62 2.44,1.273 3.696,1.56 2.067,0.591 2.889,0.14 2.981,-0.459 0.1,-0.631 -0.436,-1.501 -1.077,-2.406 0.127,0.006 -0.739,-0.941 -1.493,-2.008 C 9.672,16.919 8.998,15.76 8.997,15.762 9,15.758 8.263,14.976 7.263,13.652 6.258,12.335 5.017,10.456 3.907,8.459 1.646,4.474 0.021,0.092 0,0" /></g><g
           transform="translate(301.2275,344.4097)"
           id="g204"><path
             id="path206"
             style="fill:#ffffff;fill-opacity:1;fill-rule:nonzero;stroke:none"
             d="M 0,0 C -0.022,-0.055 -0.029,-0.075 -0.197,-0.097 -0.701,-0.2 -1.549,-0.25 -2.536,-0.019 -3.527,0.2 -4.66,0.718 -5.689,1.823 c -0.038,0.04 -0.165,0.214 -0.168,0.28 0.059,0.18 2.136,5.984 4.967,11.48 1.399,2.756 2.991,5.439 4.351,7.392 1.347,1.957 2.436,3.188 2.428,3.19 0.006,-0.005 0.793,0.723 2.024,1.552 1.214,0.833 2.919,1.735 4.49,2.069 1.291,0.354 2.205,0.289 2.727,0.109 0.528,-0.192 0.694,-0.483 0.652,-0.803 -0.1,-0.643 -0.907,-1.4 -1.736,-2.329 0.138,0.01 -0.948,-0.947 -1.869,-2.194 C 11.239,21.345 10.427,19.93 10.428,19.93 10.43,19.93 9.572,18.935 8.42,17.242 7.265,15.554 5.845,13.15 4.572,10.623 1.988,5.575 0.038,0.127 0,0" /></g><g
           transform="translate(309.2324,335.5898)"
           id="g208"><path
             id="path210"
             style="fill:#ffffff;fill-opacity:1;fill-rule:nonzero;stroke:none"
             d="m 0,0 c -0.026,-0.059 -0.036,-0.081 -0.207,-0.103 -1.03,-0.193 -3.467,-0.197 -5.398,2.172 -0.035,0.044 -0.151,0.229 -0.15,0.299 0.066,0.18 2.582,6.253 5.473,12.118 2.834,5.889 6.195,11.537 6.216,11.53 -0.011,0 2.768,3.367 5.325,5.218 2.046,1.66 3.073,1.757 3.362,1.184 0.3,-0.586 -0.068,-1.864 -0.638,-3.285 0.144,0.086 -0.667,-1.521 -1.423,-3.199 -0.766,-1.674 -1.494,-3.41 -1.493,-3.41 C 11.054,22.54 7.929,17.248 5.221,11.603 2.466,5.987 0.055,0.152 0,0" /></g><g
           transform="translate(320.1318,333.4585)"
           id="g212"><path
             id="path214"
             style="fill:#ffffff;fill-opacity:1;fill-rule:nonzero;stroke:none"
             d="m 0,0 c -0.023,-0.056 -0.031,-0.076 -0.199,-0.097 -0.507,-0.103 -1.358,-0.147 -2.343,0.096 -0.987,0.232 -2.112,0.769 -3.126,1.89 -0.037,0.041 -0.161,0.217 -0.164,0.283 0.057,0.18 2.239,5.995 4.988,11.543 1.36,2.782 2.852,5.504 4.065,7.508 1.207,2.006 2.112,3.301 2.108,3.303 -0.018,-0.003 2.854,3.076 5.535,4.518 2.154,1.327 3.164,1.201 3.368,0.607 0.219,-0.616 -0.263,-1.748 -0.898,-3 0.143,0.061 -0.739,-1.326 -1.526,-2.817 -0.8,-1.482 -1.527,-3.048 -1.526,-3.05 0,0 -0.792,-1.155 -1.885,-2.988 C 7.302,15.967 5.928,13.445 4.663,10.839 2.1,5.635 0.04,0.136 0,0" /></g><g
           transform="translate(330.3232,333.4453)"
           id="g216"><path
             id="path218"
             style="fill:#ffffff;fill-opacity:1;fill-rule:nonzero;stroke:none"
             d="m 0,0 c -0.014,-0.04 -0.019,-0.055 -0.179,-0.064 -0.477,-0.055 -1.296,-0.063 -2.287,0.134 -0.998,0.17 -2.175,0.584 -3.288,1.531 -0.041,0.035 -0.182,0.182 -0.191,0.239 0.024,0.072 0.404,1.337 1.101,3.084 0.693,1.752 1.723,4.002 2.918,6.158 2.34,4.35 5.517,8.151 5.523,8.139 -0.013,0.008 2.564,2.071 4.817,2.875 1.803,0.798 2.656,0.603 2.907,0.034 0.255,-0.579 -0.068,-1.555 -0.571,-2.558 0.127,0.027 -0.587,-1.059 -1.246,-2.189 C 8.835,16.257 8.223,15.088 8.223,15.088 8.219,15.102 5.497,11.799 3.456,7.981 2.417,6.091 1.52,4.114 0.924,2.598 0.323,1.078 0.017,0.048 0,0" /></g><g
           transform="translate(340.4199,331.1523)"
           id="g220"><path
             id="path222"
             style="fill:#ffffff;fill-opacity:1;fill-rule:nonzero;stroke:none"
             d="M 0,0 C -0.016,-0.031 -0.021,-0.042 -0.176,-0.024 -0.643,0.005 -1.439,0.132 -2.397,0.458 -3.359,0.768 -4.48,1.3 -5.536,2.24 c -0.039,0.034 -0.172,0.176 -0.179,0.222 0.043,0.127 1.605,3.705 3.678,7.009 1.023,1.66 2.165,3.262 3.101,4.424 0.93,1.165 1.631,1.897 1.628,1.899 -0.018,0.002 2.287,1.526 4.318,1.843 1.624,0.391 2.343,-0.02 2.533,-0.594 C 9.736,16.452 9.46,15.654 9.067,14.88 9.173,14.875 8.604,14.076 8.101,13.216 7.589,12.363 7.128,11.462 7.128,11.462 7.123,11.485 4.949,9.063 3.198,6.129 1.398,3.238 0.016,0.063 0,0" /></g><g
           transform="translate(350.4341,327.0229)"
           id="g224"><path
             id="path226"
             style="fill:#ffffff;fill-opacity:1;fill-rule:nonzero;stroke:none"
             d="m 0,0 c -0.014,-0.021 -0.019,-0.028 -0.165,0.018 -0.863,0.264 -3.031,1.019 -5.057,2.878 -0.037,0.034 -0.164,0.169 -0.173,0.206 0.041,0.08 1.408,2.427 2.934,4.651 1.503,2.238 3.216,4.361 3.223,4.359 -0.005,0 1.626,0.993 3.161,1.243 2.397,0.589 2.738,-1.032 2.501,-2.36 C 6.574,11.001 5.473,8.125 5.501,8.116 5.5,8.121 4.005,6.254 2.642,4.213 1.261,2.186 0.022,0.047 0,0" /></g><g
           transform="translate(361.2451,324.271)"
           id="g228"><path
             id="path230"
             style="fill:#ffffff;fill-opacity:1;fill-rule:nonzero;stroke:none"
             d="M 0,0 C -0.008,-0.01 -0.011,-0.014 -0.149,0.047 -0.967,0.392 -3,1.392 -5.168,2.991 c -0.04,0.029 -0.18,0.14 -0.196,0.164 l 2.577,4.331 c 0,0 0.96,0.375 2.066,0.384 C 0.909,8.03 1.899,7 2.233,6.111 2.382,6.096 2.52,4.285 2.52,4.285 Z" /></g><g
           transform="translate(313.063,322.4243)"
           id="g232"><path
             id="path234"
             style="fill:#ffffff;fill-opacity:1;fill-rule:nonzero;stroke:none"
             d="M 0,0 C -0.148,0.014 -0.202,0.018 -0.385,0.183 -1.023,0.675 -1.788,1.517 -1.974,2.54 -2.169,3.562 -1.771,4.783 -0.013,5.991 0.052,6.035 0.353,6.189 0.5,6.203 0.715,6.181 4.882,5.871 10.885,5.145 14.098,4.755 18.342,4.17 22.413,3.474 26.484,2.786 30.382,1.975 32.922,1.375 c 3.534,-0.826 5.711,-1.475 5.711,-1.471 -0.003,-0.008 2.312,-0.785 5.346,-2.157 3.023,-1.364 6.785,-3.406 9.426,-5.837 2.293,-1.985 3.301,-3.842 3.593,-4.948 0.288,-1.126 0.037,-1.499 -0.34,-1.358 -0.394,0.128 -0.979,0.704 -1.868,1.38 -0.885,0.682 -2.083,1.473 -3.515,2.217 0.116,-0.126 -0.637,0.313 -1.935,0.912 -1.295,0.603 -3.154,1.337 -5.102,1.955 -3.889,1.258 -8.066,2.081 -8.06,2.088 -10e-4,-0.004 -1.741,0.499 -4.662,1.181 -2.309,0.543 -6.044,1.325 -10.019,1.995 -3.973,0.678 -8.178,1.257 -11.358,1.639 C 4.276,-0.322 0.206,-0.021 0,0" /></g><g
           transform="translate(322.396,309.0654)"
           id="g236"><path
             id="path238"
             style="fill:#ffffff;fill-opacity:1;fill-rule:nonzero;stroke:none"
             d="M 0,0 C -0.146,0.036 -0.198,0.048 -0.355,0.238 -1.464,1.394 -2.941,4.039 0.864,5.928 0.935,5.962 1.253,6.071 1.4,6.063 1.608,6.012 5.665,5.093 11.497,3.581 15.729,2.5 22.653,0.536 25.991,-0.52 c 3.433,-1.059 5.548,-1.787 5.549,-1.784 -0.02,-0.008 8.985,-3.572 14.617,-7.65 2.418,-1.645 3.793,-3.062 4.409,-4.017 0.613,-0.963 0.533,-1.394 0.124,-1.394 -0.414,-0.01 -1.183,0.337 -2.267,0.801 -1.082,0.467 -2.485,1.058 -4.057,1.667 0.289,-0.208 -3.409,1.377 -7.414,2.615 -3.981,1.276 -8.148,2.354 -8.146,2.357 -0.001,-0.002 -1.742,0.588 -4.639,1.48 C 21.071,-5.468 14.162,-3.512 9.938,-2.439 4.201,-0.954 0.203,-0.05 0,0" /></g><g
           transform="translate(328.5518,294.1279)"
           id="g240"><path
             id="path242"
             style="fill:#ffffff;fill-opacity:1;fill-rule:nonzero;stroke:none"
             d="m 0,0 c -0.145,0.037 -0.197,0.05 -0.351,0.241 -0.554,0.586 -1.178,1.536 -1.202,2.576 -0.034,1.04 0.55,2.184 2.475,3.102 0.071,0.034 0.392,0.139 0.54,0.13 C 1.671,5.993 5.74,5.04 11.558,3.373 14.083,2.655 18.214,1.37 20.206,0.696 c 3.423,-1.132 5.524,-1.925 5.525,-1.921 -0.019,0.01 8.925,-3.86 14.359,-8.184 2.343,-1.738 3.66,-3.161 4.286,-4.087 0.624,-0.934 0.591,-1.362 0.177,-1.389 -0.828,-0.044 -3.253,1.281 -6.369,2.606 0.278,-0.223 -3.356,1.526 -7.297,2.906 -3.918,1.42 -8.04,2.6 -8.038,2.601 -0.001,-0.002 -1.718,0.633 -4.586,1.581 -1.834,0.617 -5.919,1.882 -8.418,2.586 C 4.173,-0.983 0.199,-0.053 0,0" /></g><g
           transform="translate(337.1777,266.7358)"
           id="g244"><path
             id="path246"
             style="fill:#ffffff;fill-opacity:1;fill-rule:nonzero;stroke:none"
             d="m 0,0 c -0.06,0.023 -0.082,0.032 -0.11,0.202 -0.236,1.02 -0.309,3.446 1.945,5.484 0.042,0.036 0.22,0.161 0.288,0.164 0.174,-0.06 6.21,-2.259 12.107,-4.737 5.912,-2.429 11.669,-5.302 11.666,-5.328 -0.006,0.007 3.491,-2.472 5.476,-4.9 1.762,-1.939 1.861,-2.978 1.299,-3.278 -0.572,-0.314 -1.818,-0.024 -3.233,0.433 0.091,-0.135 -1.515,0.546 -3.21,1.162 -1.688,0.626 -3.444,1.211 -3.443,1.212 0.016,0.013 -5.398,2.697 -11.105,5.034 C 6,-2.176 0.155,-0.052 0,0" /></g><g
           transform="translate(336.8135,253.3618)"
           id="g248"><path
             id="path250"
             style="fill:#ffffff;fill-opacity:1;fill-rule:nonzero;stroke:none"
             d="m 0,0 c -0.045,0.021 -0.061,0.028 -0.063,0.191 -0.063,0.98 0.185,3.323 2.215,5.381 0.037,0.037 0.193,0.165 0.247,0.17 0.128,-0.052 4.62,-1.936 9.034,-3.942 4.42,-1.983 8.765,-4.176 8.765,-4.189 -0.004,0.003 2.565,-2.011 4.011,-3.997 1.303,-1.562 1.335,-2.472 0.833,-2.841 -0.505,-0.377 -1.529,-0.313 -2.661,-0.072 0.065,-0.115 -1.211,0.305 -2.539,0.705 l -2.691,0.802 c 0.011,0.006 -4.109,2.071 -8.395,3.986 C 4.484,-1.873 0.117,-0.047 0,0" /></g><g
           transform="translate(338.6318,241.3877)"
           id="g252"><path
             id="path254"
             style="fill:#ffffff;fill-opacity:1;fill-rule:nonzero;stroke:none"
             d="m 0,0 c -0.031,0.014 -0.042,0.017 -0.033,0.174 0.005,0.465 0.085,1.267 0.349,2.243 0.247,0.98 0.703,2.135 1.574,3.249 0.031,0.04 0.164,0.181 0.21,0.192 0.132,-0.034 3.777,-1.369 7.14,-3.265 3.405,-1.822 6.464,-4.343 6.45,-4.362 0.005,0.016 1.59,-2.17 2.021,-4.132 0.482,-1.558 0.148,-2.302 -0.408,-2.547 -0.57,-0.248 -1.391,-0.042 -2.193,0.298 0.005,-0.105 -0.84,0.406 -1.724,0.859 -0.879,0.463 -1.799,0.871 -1.797,0.873 0.016,0.004 -2.476,2.043 -5.431,3.619 C 3.239,-1.168 0.058,-0.008 0,0" /></g><g
           transform="translate(339.4243,228.8604)"
           id="g256"><path
             id="path258"
             style="fill:#ffffff;fill-opacity:1;fill-rule:nonzero;stroke:none"
             d="m 0,0 c -0.02,0.013 -0.027,0.017 0.019,0.163 0.238,0.873 1.059,3 2.787,5.108 0.031,0.039 0.154,0.173 0.186,0.185 l 7.91,-4.367 c 0,0 0.967,-1.257 1.404,-2.578 0.879,-1.992 -0.389,-2.866 -1.683,-2.999 0.033,-0.173 -2.81,0.203 -2.81,0.203 z" /></g><g
           transform="translate(338.835,217.189)"
           id="g260"><path
             id="path262"
             style="fill:#ffffff;fill-opacity:1;fill-rule:nonzero;stroke:none"
             d="m 0,0 c -0.004,0.006 -0.006,0.007 0.078,0.132 0.48,0.74 1.767,2.599 3.488,4.657 0.032,0.038 0.148,0.172 0.169,0.189 L 5.764,3.423 c 0,0 -0.055,-0.756 -0.393,-1.687 C 4.967,0.383 3.986,-0.6 3.3,-1.009 3.244,-1.137 2.016,-1.513 2.016,-1.513 Z" /></g><g
           transform="translate(149.7739,340.5317)"
           id="g264"><path
             id="path266"
             style="fill:#ffffff;fill-opacity:1;fill-rule:nonzero;stroke:none"
             d="m 0,0 c -2.802,-8.605 -12.046,-13.31 -20.65,-10.511 -8.605,2.801 -13.31,12.045 -10.51,20.649 2.8,8.606 12.045,13.312 20.649,10.511 C -1.905,17.851 2.8,8.604 0,0" /></g><g
           transform="translate(158.2661,329.4644)"
           id="g268"><path
             id="path270"
             style="fill:#ffffff;fill-opacity:1;fill-rule:nonzero;stroke:none"
             d="m 0,0 -26.245,8.708 4.788,14.714 27.17,-9.015 z" /></g><g
           transform="translate(189.0571,319.2495)"
           id="g272"><path
             id="path274"
             style="fill:#82c388;fill-opacity:1;fill-rule:nonzero;stroke:none"
             d="M 0,0 -30.791,10.215 -25.078,24.622 6.428,14.17 Z" /></g><g
           transform="translate(408.5376,246.4341)"
           id="g276"><path
             id="path278"
             style="fill:#82c388;fill-opacity:1;fill-rule:nonzero;stroke:none"
             d="M 0,0 -89.743,29.917 -95.346,47.576 4.025,14.968 Z" /></g><g
           transform="translate(412.563,261.4019)"
           id="g280"><path
             id="path282"
             style="fill:#ffffff;fill-opacity:1;fill-rule:nonzero;stroke:none"
             d="m 0,0 16.51,-5.478 c 0,0 33.468,-14.815 32.227,-18.623 -1.238,-3.808 -37.014,3.909 -37.014,3.909 l -15.748,5.224 z" /></g><g
           transform="translate(124.0815,354.3062)"
           id="g284"><path
             id="path286"
             style="fill:none;stroke:#82c388;stroke-width:2;stroke-linecap:round;stroke-linejoin:round;stroke-miterlimit:10;stroke-dasharray:none;stroke-opacity:1"
             d="M 0,0 C 0,0 4.232,5.992 11.351,4.15" /></g><g
           transform="translate(318.7944,288.7319)"
           id="g288"><path
             id="path290"
             style="fill:none;stroke:#ffffff;stroke-width:2;stroke-linecap:round;stroke-linejoin:round;stroke-miterlimit:10;stroke-dasharray:none;stroke-opacity:1"
             d="M 0,0 89.743,-30.038" /></g><g
           transform="translate(162.4526,340.4771)"
           id="g292"><path
             id="path294"
             style="fill:none;stroke:#ffffff;stroke-width:2;stroke-linecap:round;stroke-linejoin:round;stroke-miterlimit:10;stroke-dasharray:none;stroke-opacity:1"
             d="M 0,0 28.154,-9.356" /></g><g
           transform="translate(150.1821,344.6206)"
           id="g296"><path
             id="path298"
             style="fill:none;stroke:#82c388;stroke-width:2;stroke-linecap:round;stroke-linejoin:round;stroke-miterlimit:10;stroke-dasharray:none;stroke-opacity:1"
             d="M 0,0 12.271,-4.144" /></g><g
           transform="translate(141.2554,268.2759)"
           id="g300"><path
             id="path302"
             style="fill:#ffffff;fill-opacity:1;fill-rule:nonzero;stroke:none"
             d="m 0,0 c 1.832,-8.862 -3.869,-17.529 -12.732,-19.36 -8.86,-1.831 -17.528,3.869 -19.359,12.73 -1.829,8.862 3.87,17.53 12.73,19.36 C -10.498,14.563 -1.829,8.863 0,0" /></g><g
           transform="translate(154.1157,262.8706)"
           id="g304"><path
             id="path306"
             style="fill:#ffffff;fill-opacity:1;fill-rule:nonzero;stroke:none"
             d="m 0,0 -27.111,-5.438 -3.131,15.152 28.067,5.629 z" /></g><g
           transform="translate(185.9233,269.2515)"
           id="g308"><path
             id="path310"
             style="fill:#82c388;fill-opacity:1;fill-rule:nonzero;stroke:none"
             d="m 0,0 -31.808,-6.381 -2.174,15.343 32.546,6.53 z" /></g><g
           transform="translate(412.6499,314.7358)"
           id="g312"><path
             id="path314"
             style="fill:#82c388;fill-opacity:1;fill-rule:nonzero;stroke:none"
             d="M 0,0 -38.51,-7.869 -52.124,4.694 -3.919,14.996 Z" /></g><g
           transform="translate(408.731,329.7319)"
           id="g316"><path
             id="path318"
             style="fill:#ffffff;fill-opacity:1;fill-rule:nonzero;stroke:none"
             d="m 0,0 17.054,3.421 c 0,0 36.411,3.711 37.221,-0.211 0.814,-3.921 -34.088,-14.941 -34.088,-14.941 L 3.919,-14.996 Z" /></g><g
           transform="translate(112.1157,267.5112)"
           id="g320"><path
             id="path322"
             style="fill:none;stroke:#82c388;stroke-width:2;stroke-linecap:round;stroke-linejoin:round;stroke-miterlimit:10;stroke-dasharray:none;stroke-opacity:1"
             d="M 0,0 C 0,0 0.708,7.304 7.803,9.229" /></g><g
           transform="translate(369.189,318.2993)"
           id="g324"><path
             id="path326"
             style="fill:none;stroke:#ffffff;stroke-width:2;stroke-linecap:round;stroke-linejoin:round;stroke-miterlimit:10;stroke-dasharray:none;stroke-opacity:1"
             d="M 0,0 37.389,7.085" /></g><g
           transform="translate(152.2974,274.5112)"
           id="g328"><path
             id="path330"
             style="fill:none;stroke:#ffffff;stroke-width:2;stroke-linecap:round;stroke-linejoin:round;stroke-miterlimit:10;stroke-dasharray:none;stroke-opacity:1"
             d="M 0,0 29.09,5.82" /></g><g
           transform="translate(139.5854,272.0308)"
           id="g332"><path
             id="path334"
             style="fill:none;stroke:#82c388;stroke-width:2;stroke-linecap:round;stroke-linejoin:round;stroke-miterlimit:10;stroke-dasharray:none;stroke-opacity:1"
             d="M 0,0 12.712,2.48" /></g></g></g></g></svg>